HIERARCHY
ROOT hip
{
  OFFSET 0 0 0
  CHANNELS 6 Xposition Yposition Zposition Zrotation Yrotation Xrotation
  JOINT abdomen
  {
    OFFSET 0 20.6881 -0.73152
    CHANNELS 3 Zrotation Xrotation Yrotation
    JOINT chest
    {
      OFFSET 0 11.7043 -0.48768
      CHANNELS 3 Zrotation Xrotation Yrotation
      JOINT neck
      {
        OFFSET 0 22.1894 -2.19456
        CHANNELS 3 Zrotation Xrotation Yrotation
        JOINT head
        {
          OFFSET -0.24384 7.07133 1.2192
          CHANNELS 3 Zrotation Xrotation Yrotation
          JOINT leftEye
          {
            OFFSET 4.14528 8.04674 8.04672
            CHANNELS 3 Zrotation Xrotation Yrotation
            End Site
            {
              OFFSET 1 0 0
            }
          }
          JOINT rightEye
          {
            OFFSET -3.6576 8.04674 8.04672
            CHANNELS 3 Zrotation Xrotation Yrotation
            End Site
            {
              OFFSET 1 0 0
            }
          }
        }
      }
      JOINT rCollar
      {
        OFFSET -2.68224 19.2634 -4.8768
        CHANNELS 3 Zrotation Xrotation Yrotation
        JOINT rShldr
        {
          OFFSET -8.77824 -1.95073 1.46304
          CHANNELS 3 Zrotation Xrotation Yrotation
          JOINT rForeArm
          {
            OFFSET -28.1742 -1.7115 0.48768
            CHANNELS 3 Zrotation Xrotation Yrotation
            JOINT rHand
            {
              OFFSET -22.5879 0.773209 7.07136
              CHANNELS 3 Zrotation Xrotation Yrotation
              JOINT rThumb1
              {
                OFFSET -1.2192 -0.487915 3.41376
                CHANNELS 3 Zrotation Xrotation Yrotation
                JOINT rThumb2
                {
                  OFFSET -3.37035 -0.52449 3.41376
                  CHANNELS 3 Zrotation Xrotation Yrotation
                  End Site
                  {
                    OFFSET -1.78271 -1.18214 1.43049
                  }
                }
              }
              JOINT rIndex1
              {
                OFFSET -7.75947 0.938293 5.60832
                CHANNELS 3 Zrotation Xrotation Yrotation
                JOINT rIndex2
                {
                  OFFSET -2.54057 -0.884171 1.56538
                  CHANNELS 3 Zrotation Xrotation Yrotation
                  End Site
                  {
                    OFFSET -1.62519 -0.234802 1.16502
                  }
                }
              }
              JOINT rMid1
              {
                OFFSET -8.24714 1.18213 3.41376
                CHANNELS 3 Zrotation Xrotation Yrotation
                JOINT rMid2
                {
                  OFFSET -3.10165 -0.590103 1.0647
                  CHANNELS 3 Zrotation Xrotation Yrotation
                  End Site
                  {
                    OFFSET -2.48547 -0.328903 0.83742
                  }
                }
              }
              JOINT rRing1
              {
                OFFSET -8.82822 0.546677 1.51678
                CHANNELS 3 Zrotation Xrotation Yrotation
                JOINT rRing2
                {
                  OFFSET -2.60934 -0.819778 -0.0198488
                  CHANNELS 3 Zrotation Xrotation Yrotation
                  End Site
                  {
                    OFFSET -2.33842 -0.294052 0.168128
                  }
                }
              }
              JOINT rPinky1
              {
                OFFSET -8.27202 -0.0477905 -0.4584
                CHANNELS 3 Zrotation Xrotation Yrotation
                JOINT rPinky2
                {
                  OFFSET -1.82734 -0.647385 -0.700984
                  CHANNELS 3 Zrotation Xrotation Yrotation
                  End Site
                  {
                    OFFSET -1.69225 -0.51767 -0.607171
                  }
                }
              }
            }
          }
        }
      }
      JOINT lCollar
      {
        OFFSET 2.68224 19.2634 -4.8768
        CHANNELS 3 Zrotation Xrotation Yrotation
        JOINT lShldr
        {
          OFFSET 8.77824 -1.95073 1.46304
          CHANNELS 3 Zrotation Xrotation Yrotation
          JOINT lForeArm
          {
            OFFSET 28.1742 -1.7115 0.48768
            CHANNELS 3 Zrotation Xrotation Yrotation
            JOINT lHand
            {
              OFFSET 22.5879 0.773209 7.07136
              CHANNELS 3 Zrotation Xrotation Yrotation
              JOINT lThumb1
              {
                OFFSET 1.2192 -0.487915 3.41376
                CHANNELS 3 Zrotation Xrotation Yrotation
                JOINT lThumb2
                {
                  OFFSET 3.37035 -0.52449 3.41376
                  CHANNELS 3 Zrotation Xrotation Yrotation
                  End Site
                  {
                    OFFSET 1.78271 -1.18214 1.43049
                  }
                }
              }
              JOINT lIndex1
              {
                OFFSET 7.75947 0.938293 5.60832
                CHANNELS 3 Zrotation Xrotation Yrotation
                JOINT lIndex2
                {
                  OFFSET 2.54057 -0.884171 1.56538
                  CHANNELS 3 Zrotation Xrotation Yrotation
                  End Site
                  {
                    OFFSET 1.62519 -0.234802 1.16502
                  }
                }
              }
              JOINT lMid1
              {
                OFFSET 8.24714 1.18213 3.41376
                CHANNELS 3 Zrotation Xrotation Yrotation
                JOINT lMid2
                {
                  OFFSET 3.10165 -0.590103 1.0647
                  CHANNELS 3 Zrotation Xrotation Yrotation
                  End Site
                  {
                    OFFSET 2.48547 -0.328903 0.83742
                  }
                }
              }
              JOINT lRing1
              {
                OFFSET 8.82822 0.546677 1.51678
                CHANNELS 3 Zrotation Xrotation Yrotation
                JOINT lRing2
                {
                  OFFSET 2.60934 -0.819778 -0.0198488
                  CHANNELS 3 Zrotation Xrotation Yrotation
                  End Site
                  {
                    OFFSET 2.33842 -0.294052 0.168128
                  }
                }
              }
              JOINT lPinky1
              {
                OFFSET 8.27202 -0.0477905 -0.4584
                CHANNELS 3 Zrotation Xrotation Yrotation
                JOINT lPinky2
                {
                  OFFSET 1.82734 -0.647385 -0.700984
                  CHANNELS 3 Zrotation Xrotation Yrotation
                  End Site
                  {
                    OFFSET 1.69225 -0.51767 -0.607171
                  }
                }
              }
            }
          }
        }
      }
    }
  }
  JOINT rButtock
  {
    OFFSET -8.77824 4.35084 1.2192
    CHANNELS 3 Zrotation Xrotation Yrotation
    JOINT rThigh
    {
      OFFSET 0 -1.70687 -2.19456
      CHANNELS 3 Zrotation Xrotation Yrotation
      JOINT rShin
      {
        OFFSET 0 -36.8199 0.73152
        CHANNELS 3 Zrotation Xrotation Yrotation
        JOINT rFoot
        {
          OFFSET 0.73152 -45.1104 -5.12064
          CHANNELS 3 Zrotation Xrotation Yrotation
          End Site
          {
            OFFSET -1.1221 -3.69964 12.103
          }
        }
      }
    }
  }
  JOINT lButtock
  {
    OFFSET 8.77824 4.35084 1.2192
    CHANNELS 3 Zrotation Xrotation Yrotation
    JOINT lThigh
    {
      OFFSET 0 -1.70687 -2.19456
      CHANNELS 3 Zrotation Xrotation Yrotation
      JOINT lShin
      {
        OFFSET 0 -36.8199 0.73152
        CHANNELS 3 Zrotation Xrotation Yrotation
        JOINT lFoot
        {
          OFFSET -0.73152 -45.1104 -5.12064
          CHANNELS 3 Zrotation Xrotation Yrotation
          End Site
          {
            OFFSET 1.1221 -3.69964 12.103
          }
        }
      }
    }
  }
}
MOTION
Frames:	7
Frame Time:	0.00833333
30.6096 10.9561 -10.738 0.0 0.0 0.0 -0.112387 -0.00251991 -0.00326453 -0.0310737 -0.00419781 -0.00538396 3.02096e-16 0.0 6.21202e-18 9.44227e-16 3.18055e-15 2.17421e-17 -0.0 0.0 0.0 -0.0 0.0 0.0 2.47214e-16 8.73565e-18 1.49089e-16 5.13307e-15 4.65902e-16 7.95139e-16 5.70512e-14 -1.03368e-14 3.18055e-15 6.52343e-13 4.75095e-14 -9.54166e-15 1.53665e-12 7.40318e-14 2.22639e-14 2.6494e-12 1.27222e-13 3.89618e-14 1.54098e-12 7.35503e-14 9.54166e-15 7.73091 5.47488 0.417314 1.53487e-12 7.32521e-14 2.54444e-14 2.90554 0.965183 0.102902 1.54255e-12 7.42461e-14 2.38542e-14 10.2786 0.731801 0.0259123 1.53024e-12 7.67309e-14 2.8625e-14 2.22167 -0.733487 -0.20892 1.50365e-16 9.51216e-18 -1.49089e-16 1.22823e-15 3.66509e-16 -7.95139e-16 5.59082e-14 2.44505e-14 -3.18055e-15 6.52616e-13 1.67973e-14 2.22639e-14 1.53881e-12 8.48019e-14 2.8625e-14 2.66451e-12 1.43125e-13 4.85035e-14 1.53541e-12 8.34896e-14 3.49861e-14 -7.73091 5.47488 -0.417314 1.53979e-12 8.45829e-14 2.54444e-14 -2.90554 0.965183 -0.102902 1.53869e-12 8.42847e-14 2.70347e-14 -10.2786 0.731801 -0.0259123 1.54774e-12 8.78628e-14 1.90833e-14 -2.22167 -0.733487 0.20892 -2.03217e-16 0.0 -3.88251e-19 0.354645 -2.94057 -0.0354229 -0.0058789 -0.224726 -0.0517529 -0.439486 3.16567 0.113033 2.03217e-16 0.0 3.88251e-19 -0.528057 -3.42448 0.0465161 0.00450102 0.651768 0.0390716 0.443388 2.7731 -0.105757
28.3831 20.3414 5.75418 -2.7289 -0.3011 19.1512 1.7737 -2.7491 -0.468653 0.521613 -1.8823 -0.15465 -1.24686 0.264435 -0.645261 1.88033 3.89021 -1.20735 -0.0 0.0 0.0 -0.0 0.0 0.0 1.52301e-14 -1.31724e-14 6.1037e-15 14.0848 26.8566 -3.24163 -12.0628 -9.01069 13.4625 0.115918 7.56505 1.03004 9.33246e-11 2.49006e-10 -3.42145e-10 1.54009e-10 4.28718e-10 -5.93174e-10 9.33284e-11 2.49005e-10 -3.42154e-10 7.73091 5.47488 0.417314 9.3323e-11 2.49005e-10 -3.42142e-10 2.90554 0.965183 0.102902 9.33314e-11 2.49006e-10 -3.42142e-10 10.2786 0.731801 0.0259123 9.3318e-11 2.49009e-10 -3.42135e-10 2.22167 -0.733487 -0.20892 1.51151e-14 -1.31721e-14 5.77368e-15 -18.8181 23.7315 5.23571 8.55087 -5.44022 -11.2424 -0.162628 8.97705 -1.20669 1.82412e-10 6.10355e-11 2.89425e-10 3.22741e-10 1.01928e-10 4.93992e-10 1.82407e-10 6.10337e-11 2.89432e-10 -7.73091 5.47488 -0.417314 1.82411e-10 6.1035e-11 2.89422e-10 -2.90554 0.965183 -0.102902 1.82411e-10 6.10351e-11 2.89423e-10 -10.2786 0.731801 -0.0259123 1.82418e-10 6.10381e-11 2.89416e-10 -2.22167 -0.733487 0.20892 -2.03217e-16 0.0 -3.88251e-19 -1.72998 -27.748 -5.03008 1.23541 26.8151 -0.0186915 0.430607 -1.12577 -0.284951 2.03217e-16 0.0 3.88251e-19 2.15539 -29.1409 3.71146 -1.21203 27.1654 -0.0144363 -0.354739 -1.60926 0.22914
28.3844 20.3426 5.75848 -2.7193 -0.3038 19.1624 3.71858 -5.65585 -0.967212 1.09866 -3.86936 -0.313698 -2.56257 0.539043 -1.32945 4.04902 7.98742 -2.50445 -0.0 0.0 0.0 -0.0 0.0 0.0 3.00912e-14 -3.0236e-14 1.31043e-14 34.473 54.8846 -10.379 -20.2141 -16.8483 28.6807 -0.0675702 15.5637 2.1817 1.78275e-10 5.25537e-10 -7.2827e-10 2.926e-10 9.04521e-10 -1.26214e-09 1.78278e-10 5.25535e-10 -7.28275e-10 7.73091 5.47488 0.417314 1.78274e-10 5.25534e-10 -7.28266e-10 2.90554 0.965183 0.102902 1.78283e-10 5.25536e-10 -7.28265e-10 10.2786 0.731801 0.0259123 1.78268e-10 5.25538e-10 -7.28255e-10 2.22167 -0.733487 -0.20892 2.99561e-14 -3.02365e-14 1.27377e-14 -45.5181 48.0611 14.8519 15.2994 -10.49 -23.4366 0.0965012 18.4003 -2.57768 3.92817e-10 1.36082e-10 6.38879e-10 6.95479e-10 2.27287e-10 1.09069e-09 3.9281e-10 1.3608e-10 6.38887e-10 -7.73091 5.47488 -0.417314 3.92813e-10 1.36082e-10 6.38876e-10 -2.90554 0.965183 -0.102902 3.92815e-10 1.36082e-10 6.38877e-10 -10.2786 0.731801 -0.0259123 3.92821e-10 1.36084e-10 6.38869e-10 -2.22167 -0.733487 0.20892 -2.03217e-16 0.0 -3.88251e-19 -11.4814 -53.1678 -15.3286 2.50068 55.4015 0.0357342 1.28624 -5.66132 -0.712238 2.03217e-16 0.0 3.88251e-19 11.1259 -55.8594 11.8513 -2.41504 55.1947 -0.118475 -1.14246 -6.24184 0.586422
28.3869 20.3318 5.75327 -2.7197 -0.3173 19.1758 5.41085 -8.24007 -1.4124 1.59751 -5.63835 -0.455133 -3.72271 0.792902 -1.93595 6.14128 11.6497 -3.68981 -0.0 0.0 0.0 -0.0 0.0 0.0 4.51957e-14 -3.95345e-14 1.80129e-14 80.4444 77.2942 -43.2954 -23.9643 -20.9588 43.3623 -0.525852 22.6645 3.31983 2.769e-10 7.46871e-10 -1.02648e-09 4.56728e-10 1.2859e-09 -1.7796e-09 2.76903e-10 7.46869e-10 -1.02648e-09 7.73091 5.47488 0.417314 2.76899e-10 7.46868e-10 -1.02648e-09 2.90554 0.965183 0.102902 2.76909e-10 7.4687e-10 -1.02647e-09 10.2786 0.731801 0.0259123 2.76893e-10 7.46872e-10 -1.02646e-09 2.22167 -0.733487 -0.20892 4.50446e-14 -3.95355e-14 1.76192e-14 -86.6305 66.6952 38.8708 19.5078 -13.8015 -34.7115 0.762351 26.8804 -4.00954 5.44159e-10 1.82937e-10 8.68219e-10 9.62894e-10 3.05498e-10 1.48188e-09 5.44151e-10 1.82934e-10 8.68227e-10 -7.73091 5.47488 -0.417314 5.44152e-10 1.82936e-10 8.68215e-10 -2.90554 0.965183 -0.102902 5.44156e-10 1.82937e-10 8.68216e-10 -10.2786 0.731801 -0.0259123 5.4416e-10 1.82939e-10 8.68209e-10 -2.22167 -0.733487 0.20892 -2.03217e-16 0.0 -3.88251e-19 -45.2051 -71.9314 -47.787 3.35871 80.8947 0.337828 1.99027 -9.70695 -1.0961 2.03217e-16 0.0 3.88251e-19 47.7985 -76.6615 46.4813 -2.99087 80.1919 -0.684903 -1.7956 -10.3727 0.913344
28.3879 20.3338 5.75299 -2.7105 -0.3232 19.1935 6.56903 -10.0201 -1.71153 1.92198 -6.86235 -0.550655 -4.50609 0.995264 -2.34805 7.68703 14.2445 -4.53189 -0.0 0.0 0.0 -0.0 0.0 0.0 6.09085e-14 -2.94201e-14 1.76918e-14 174.767 76.5669 -127.802 -25.2468 -21.6361 53.8381 -1.03125 27.5504 4.20458 4.09713e-10 8.30217e-10 -1.1049e-09 6.84698e-10 1.43122e-09 -1.91826e-09 4.09716e-10 8.30214e-10 -1.1049e-09 7.73091 5.47488 0.417314 4.09712e-10 8.30213e-10 -1.1049e-09 2.90554 0.965183 0.102902 4.09722e-10 8.30214e-10 -1.1049e-09 10.2786 0.731801 0.0259123 4.09706e-10 8.30217e-10 -1.10488e-09 2.22167 -0.733487 -0.20892 6.07517e-14 -2.94207e-14 1.72943e-14 -141.104 72.2584 80.4317 21.6092 -15.1813 -42.7461 1.55738 33.048 -5.24621 5.47843e-10 1.59311e-10 7.97273e-10 9.66998e-10 2.6584e-10 1.35932e-09 5.47833e-10 1.59308e-10 7.97282e-10 -7.73091 5.47488 -0.417314 5.47835e-10 1.5931e-10 7.9727e-10 -2.90554 0.965183 -0.102902 5.47838e-10 1.59311e-10 7.9727e-10 -10.2786 0.731801 -0.0259123 5.47842e-10 1.59312e-10 7.97263e-10 -2.22167 -0.733487 0.20892 -2.03217e-16 0.0 -3.88251e-19 -102.826 -73.3451 -103.557 -174.991 81.3435 179.488 2.44573 -12.5296 -1.35375 2.03217e-16 0.0 3.88251e-19 126.206 -76.0152 122.739 174.399 82.3869 -178.857 -2.22261 -13.2507 1.1484
28.3876 20.3303 5.74808 -2.6958 -0.3163 19.2264 7.02167 -10.6751 -1.8016 2.01251 -7.32246 -0.581639 -4.76603 1.12857 -2.48605 8.3073 15.355 -4.84469 -0.0 0.0 0.0 -0.0 0.0 0.0 8.26035e-14 1.04345e-14 9.43295e-15 -166.325 71.1346 -142.635 -25.6129 -21.3801 57.9136 -1.26694 29.3597 4.56138 6.35417e-10 7.09847e-10 -8.46173e-10 1.0806e-09 1.22877e-09 -1.47679e-09 6.35422e-10 7.09843e-10 -8.46172e-10 7.73091 5.47488 0.417314 6.35417e-10 7.09841e-10 -8.46171e-10 2.90554 0.965183 0.102902 6.35425e-10 7.09842e-10 -8.46168e-10 10.2786 0.731801 0.0259123 6.35411e-10 7.09844e-10 -8.46155e-10 2.22167 -0.733487 -0.20892 8.24538e-14 1.04359e-14 9.06645e-15 -163.991 71.167 98.0035 22.286 -15.478 -45.9024 2.03304 36.0255 -5.91773 3.02751e-10 1.32859e-11 2.08166e-10 5.2715e-10 2.1482e-11 3.49936e-10 3.02742e-10 1.3285e-11 2.08177e-10 -7.73091 5.47488 -0.417314 3.02744e-10 1.32854e-11 2.08163e-10 -2.90554 0.965183 -0.102902 3.02745e-10 1.32861e-11 2.08163e-10 -10.2786 0.731801 -0.0259123 3.02749e-10 1.32866e-11 2.08157e-10 -2.22167 -0.733487 0.20892 -2.03217e-16 0.0 -3.88251e-19 -120.423 -69.8729 -120.18 -174.867 74.4094 179.674 2.61248 -13.6427 -1.41631 2.03217e-16 0.0 3.88251e-19 142.505 -71.0508 138.017 174.574 75.5791 -179.333 -2.3843 -14.3742 1.24063
28.3852 20.318 5.74136 -2.6888 -0.3296 19.2534 6.97976 -10.5269 -1.73977 1.93794 -7.23702 -0.566116 -4.65377 1.21252 -2.42831 8.22601 15.4096 -4.76547 -0.0 0.0 0.0 -0.0 0.0 0.0 1.08327e-13 7.14102e-14 -4.46644e-15 -167.973 71.8472 -141.321 -25.5978 -21.4775 57.5681 -1.22233 28.9784 4.48715 9.25329e-10 4.44466e-10 -3.48024e-10 1.5927e-09 7.78736e-10 -6.23304e-10 9.25335e-10 4.44461e-10 -3.48023e-10 7.73091 5.47488 0.417314 9.2533e-10 4.44459e-10 -3.48022e-10 2.90554 0.965183 0.102902 9.25335e-10 4.44459e-10 -3.48021e-10 10.2786 0.731801 0.0259123 9.25323e-10 4.44461e-10 -3.48009e-10 2.22167 -0.733487 -0.20892 1.08194e-13 7.14146e-14 -4.77704e-15 -160.05 71.5368 94.5904 22.2113 -15.4479 -45.5432 2.1166 36.7382 -6.07049 -1.18035e-10 -2.19037e-10 -7.46401e-10 -2.26219e-10 -3.67201e-10 -1.28492e-09 -1.18044e-10 -2.19036e-10 -7.46388e-10 -7.73091 5.47488 -0.417314 -1.18039e-10 -2.19037e-10 -7.46403e-10 -2.90554 0.965183 -0.102902 -1.18042e-10 -2.19037e-10 -7.46404e-10 -10.2786 0.731801 -0.0259123 -1.18037e-10 -2.19037e-10 -7.46409e-10 -2.22167 -0.733487 0.20892 -2.03217e-16 0.0 -3.88251e-19 -118.919 -70.3237 -118.759 -174.881 75.2088 179.652 2.58604 -13.5348 -1.3354 2.03217e-16 0.0 3.88251e-19 141.204 -71.6368 136.828 174.573 76.3496 -179.294 -2.36878 -14.245 1.22678
